<svg width="40" height="40" viewBox="0 0 40 40" fill="none" xmlns="http://www.w3.org/2000/svg">
<path fill-rule="evenodd" clip-rule="evenodd" d="M13.0175 1.25C13.7078 1.25 14.2675 1.80964 14.2675 2.5V4.79704C14.7618 4.76518 15.2728 4.75 15.7999 4.75H18.7499V2.5C18.7499 1.80964 19.3096 1.25 19.9999 1.25C20.6903 1.25 21.2499 1.80964 21.2499 2.5V4.75H24.1999C24.7333 4.75 25.2502 4.76554 25.7499 4.79817V2.5C25.7499 1.80964 26.3096 1.25 26.9999 1.25C27.6903 1.25 28.2499 1.80964 28.2499 2.5V5.14303C30.0063 5.53804 31.4714 6.25365 32.6088 7.39112C33.7463 8.52858 34.4619 9.99363 34.8569 11.75H37.4999C38.1903 11.75 38.7499 12.3096 38.7499 13C38.7499 13.6904 38.1903 14.25 37.4999 14.25H35.2018C35.2344 14.7498 35.2499 15.2666 35.2499 15.8C35.2499 16.4904 34.6903 17.05 33.9999 17.05C33.3096 17.05 32.7499 16.4904 32.7499 15.8C32.7499 12.4233 32.0669 10.3848 30.8411 9.15888C29.6152 7.933 27.5766 7.25 24.1999 7.25H19.9999H15.7999C12.4232 7.25 10.3847 7.933 9.15882 9.15888C7.93294 10.3848 7.24994 12.4233 7.24994 15.8V20V24.2C7.24994 27.5767 7.93294 29.6152 9.15882 30.8411C10.3847 32.067 12.4232 32.75 15.7999 32.75C16.4903 32.75 17.0499 33.3096 17.0499 34C17.0499 34.6904 16.4903 35.25 15.7999 35.25C15.2728 35.25 14.7618 35.2348 14.2675 35.203V37.5C14.2675 38.1904 13.7078 38.75 13.0175 38.75C12.3271 38.75 11.7675 38.1904 11.7675 37.5V34.8609C10.0033 34.4667 8.5323 33.7501 7.39106 32.6089C6.25359 31.4714 5.53798 30.0064 5.14297 28.25H2.49994C1.80958 28.25 1.24994 27.6904 1.24994 27C1.24994 26.3096 1.80958 25.75 2.49994 25.75H4.79811C4.76548 25.2502 4.74994 24.7334 4.74994 24.2V21.25H2.49994C1.80958 21.25 1.24994 20.6904 1.24994 20C1.24994 19.3096 1.80958 18.75 2.49994 18.75H4.74994V15.8C4.74994 15.2666 4.76548 14.7498 4.79811 14.25H2.49994C1.80958 14.25 1.24994 13.6904 1.24994 13C1.24994 12.3096 1.80958 11.75 2.49994 11.75H5.14297C5.53798 9.99363 6.25359 8.52858 7.39106 7.39112C8.5323 6.24987 10.0033 5.53329 11.7675 5.1391V2.5C11.7675 1.80964 12.3271 1.25 13.0175 1.25ZM17.3749 10C15.0642 10 13.1214 10.4545 11.7879 11.788C10.4544 13.1215 9.99994 15.0642 9.99994 17.375V22.625C9.99994 25.1732 10.5475 27.2701 12.2033 28.59C12.7431 29.0203 13.5296 28.9315 13.9599 28.3916C14.3902 27.8518 14.3014 27.0653 13.7616 26.635C13.0024 26.0299 12.4999 24.9068 12.4999 22.625V17.375C12.4999 15.3108 12.9204 14.191 13.5557 13.5558C14.191 12.9205 15.3107 12.5 17.3749 12.5H22.6249C24.9064 12.5 26.0244 13.0022 26.6295 13.7723C27.0561 14.3151 27.8419 14.4094 28.3847 13.9829C28.9276 13.5564 29.0219 12.7706 28.5953 12.2277C27.2754 10.5478 25.1734 10 22.6249 10H17.3749ZM28.2425 27.2175C27.3961 27.2175 26.71 27.9037 26.71 28.75C26.71 29.5964 27.3961 30.2825 28.2425 30.2825C29.0888 30.2825 29.775 29.5964 29.775 28.75C29.775 27.9037 29.0888 27.2175 28.2425 27.2175ZM24.21 28.75C24.21 26.5229 26.0154 24.7175 28.2425 24.7175C30.4695 24.7175 32.275 26.5229 32.275 28.75C32.275 30.9771 30.4695 32.7825 28.2425 32.7825C26.0154 32.7825 24.21 30.9771 24.21 28.75ZM25.1194 21.2841C25.2332 21.2163 25.4222 21.2392 25.5234 21.4094L25.6259 21.5802C26.1789 22.5312 27.0755 23.2844 28.225 23.2844C29.3746 23.2844 30.2712 22.5312 30.8241 21.5802L30.9244 21.4131L30.9266 21.4094C31.0145 21.2617 31.2036 21.2138 31.3471 21.2937L32.933 22.2174C33.1947 22.3703 33.2618 22.6797 33.1303 22.9052L33.128 22.9092C32.5745 23.8662 32.3676 25.0245 32.9428 26.0243C33.5186 27.025 34.625 27.4275 35.7325 27.4275C36.0047 27.4275 36.2325 27.6554 36.2325 27.9275V29.555C36.2325 29.8271 36.0047 30.055 35.7325 30.055C34.625 30.055 33.5186 30.4574 32.9428 31.4582C32.3676 32.458 32.5745 33.6163 33.1279 34.5733L33.1303 34.5773C33.2688 34.8148 33.1809 35.1255 32.9497 35.2555L32.9334 35.2648L31.3409 36.1923L31.3307 36.1984C31.2168 36.2661 31.0279 36.2433 30.9267 36.0731L30.8242 35.9023C30.2712 34.9513 29.3746 34.1981 28.225 34.1981C27.0755 34.1981 26.1789 34.9513 25.6259 35.9023L25.5257 36.0694L25.5234 36.0731C25.4355 36.2208 25.2464 36.2687 25.103 36.1888L23.5172 35.2652C23.2554 35.1123 23.1882 34.8029 23.3198 34.5773L23.3221 34.5733C23.8755 33.6163 24.0825 32.458 23.5073 31.4582C22.9315 30.4574 21.825 30.055 20.7175 30.055L20.6948 30.0552C20.453 30.0596 20.2175 29.8575 20.2175 29.555V27.9275C20.2175 27.6554 20.4454 27.4275 20.7175 27.4275C21.825 27.4275 22.9315 27.025 23.5073 26.0243C24.0825 25.0245 23.8755 23.8662 23.3221 22.9092L23.3198 22.9052C23.1812 22.6677 23.2691 22.357 23.5004 22.227L23.5166 22.2176L25.1092 21.2902L25.1194 21.2841ZM23.8465 19.1324C25.2009 18.3306 26.897 18.832 27.6703 20.1283L27.6716 20.1306L27.7744 20.3019L27.7846 20.3192C27.9235 20.5594 28.0514 20.6819 28.1317 20.7382C28.1707 20.7655 28.1973 20.7765 28.21 20.7808C28.2165 20.783 28.2206 20.7838 28.2224 20.7841L28.225 20.7844L28.2276 20.7841C28.2295 20.7838 28.2335 20.783 28.2401 20.7808C28.2527 20.7765 28.2793 20.7655 28.3184 20.7382C28.3987 20.6819 28.5266 20.5594 28.6654 20.3192L28.6757 20.3019L28.7784 20.1306L28.7796 20.1286C29.5667 18.8088 31.2647 18.3672 32.5902 19.1247L32.5991 19.1298L34.1924 20.0578C35.6097 20.8845 36.1376 22.7085 35.2911 24.1625C35.1534 24.4012 35.1111 24.5726 35.1024 24.6706C35.0982 24.7184 35.102 24.7474 35.1047 24.7611C35.1062 24.7681 35.1076 24.7723 35.1083 24.7744C35.1091 24.7764 35.1096 24.7773 35.1098 24.7776C35.1099 24.7779 35.1104 24.7787 35.1117 24.7803C35.113 24.7819 35.1159 24.7851 35.1211 24.7898C35.1313 24.7988 35.1541 24.8164 35.1973 24.8365C35.2858 24.878 35.4555 24.9275 35.7325 24.9275C37.3854 24.9275 38.7325 26.2746 38.7325 27.9275V29.555C38.7325 31.2079 37.3854 32.555 35.7325 32.555C35.4555 32.555 35.2858 32.6045 35.1973 32.6459C35.1541 32.6661 35.1313 32.6837 35.1211 32.6927C35.1159 32.6974 35.113 32.7006 35.1117 32.7022C35.1104 32.7038 35.1099 32.7046 35.1098 32.7049C35.1096 32.7052 35.1091 32.7061 35.1083 32.7081C35.1079 32.7092 35.1073 32.7109 35.1067 32.7132C35.1061 32.7154 35.1054 32.7181 35.1047 32.7214C35.102 32.7351 35.0982 32.7641 35.1024 32.8119C35.1111 32.9098 35.1533 33.0812 35.2909 33.3197C36.129 34.7589 35.6256 36.6119 34.1847 37.4292L32.6036 38.3501C31.2492 39.1519 29.5531 38.6505 28.7798 37.3542L28.7784 37.3519L28.6757 37.1806L28.6654 37.1633C28.5266 36.9231 28.3987 36.8006 28.3184 36.7443C28.2793 36.7169 28.2527 36.7059 28.2401 36.7017C28.2362 36.7004 28.2332 36.6996 28.231 36.6991C28.2295 36.6987 28.2284 36.6985 28.2276 36.6984L28.225 36.6981L28.2224 36.6984C28.2216 36.6985 28.2203 36.6988 28.2185 36.6992C28.2164 36.6997 28.2135 36.7005 28.21 36.7017C28.1973 36.7059 28.1707 36.7169 28.1317 36.7443C28.0514 36.8006 27.9235 36.9231 27.7846 37.1633L27.7744 37.1806L27.6716 37.3519L27.6702 37.3542C26.883 38.6738 25.1853 39.1152 23.8599 38.3578L23.8509 38.3527L22.2577 37.4247C20.8405 36.598 20.3125 34.7742 21.1588 33.3202C21.2967 33.0815 21.339 32.9099 21.3476 32.8119C21.3518 32.7641 21.3481 32.7351 21.3453 32.7214C21.3439 32.7144 21.3425 32.7101 21.3417 32.7081C21.341 32.7061 21.3405 32.7052 21.3403 32.7049C21.3401 32.7046 21.3396 32.7038 21.3383 32.7022C21.337 32.7006 21.3342 32.6974 21.329 32.6927C21.3188 32.6837 21.2959 32.6661 21.2528 32.6459C21.1651 32.605 20.9981 32.556 20.7262 32.555C19.0497 32.5778 17.7175 31.2079 17.7175 29.555V27.9275C17.7175 26.2746 19.0647 24.9275 20.7175 24.9275C20.9945 24.9275 21.1642 24.878 21.2528 24.8365C21.2959 24.8164 21.3188 24.7988 21.329 24.7898C21.3342 24.7851 21.337 24.7819 21.3383 24.7803C21.3396 24.7787 21.3401 24.7779 21.3403 24.7776C21.3405 24.7773 21.341 24.7764 21.3417 24.7744C21.3425 24.7723 21.3439 24.7681 21.3453 24.7611C21.3481 24.7474 21.3518 24.7184 21.3476 24.6706C21.339 24.5727 21.2967 24.4013 21.1591 24.1628C20.3211 22.7236 20.8244 20.8705 22.2654 20.0533L23.8465 19.1324Z" fill="white"/>
</svg>
