<svg width="40" height="40" viewBox="0 0 40 40" fill="none" xmlns="http://www.w3.org/2000/svg">
<path d="M39.3595 9.92735C39.5625 9.72472 39.7236 9.48404 39.8335 9.21907C39.9434 8.9541 40 8.67006 40 8.3832C40 8.09634 39.9434 7.8123 39.8335 7.54734C39.7236 7.28237 39.5625 7.04168 39.3595 6.83905L33.1609 0.640536C32.9583 0.437489 32.7176 0.276399 32.4527 0.166487C32.1877 0.056575 31.9037 0 31.6168 0C31.3299 0 31.0459 0.056575 30.7809 0.166487C30.516 0.276399 30.2753 0.437489 30.0726 0.640536L20.2383 10.4749L11.718 1.95471C10.0096 0.246285 7.22795 0.246285 5.51952 1.95471L1.35798 6.11626C-0.350446 7.82468 -0.350446 10.6063 1.35798 12.3148L9.8782 20.835L0 30.7132V40H9.28682L19.1869 30.0999L27.7071 38.6201C29.7879 40.7009 32.5915 39.9343 33.9056 38.6201L38.0672 34.4586C39.7756 32.7501 39.7756 29.9685 38.0672 28.2601L29.547 19.7398L39.3595 9.92735V9.92735ZM4.46819 9.20456L8.60783 5.04301L11.3895 7.82468L8.80496 10.4311L11.8933 13.5194L14.4997 10.913L17.128 13.5413L12.9665 17.7029L4.46819 9.20456V9.20456ZM29.0651 25.5003L26.4587 28.1067L29.547 31.195L32.1534 28.5886L34.9351 31.3703L30.7735 35.5318L22.2533 27.0116L26.4149 22.85L29.0651 25.5003V25.5003ZM7.46888 35.6194H4.38057V32.5311L25.4292 11.4825L28.2766 14.3298L28.5175 14.5708L7.46888 35.6194ZM28.5175 8.37225L31.6058 5.28395L34.6942 8.37225L31.6058 11.4606L28.5175 8.37225Z" fill="white"/>
</svg>
