<svg width="40" height="40" viewBox="0 0 40 40" fill="none" xmlns="http://www.w3.org/2000/svg">
<path fill-rule="evenodd" clip-rule="evenodd" d="M3.5 13.9021C3.5 9.16148 7.31744 5.34003 12.008 5.34003C14.7713 5.34003 17.2507 6.68328 18.7989 8.75268C19.0821 9.13122 19.5272 9.3541 20 9.3541C20.4728 9.3541 20.9179 9.13122 21.2011 8.75268C22.7493 6.68328 25.2287 5.34003 27.992 5.34003C32.6826 5.34003 36.5 9.16148 36.5 13.9021C36.5 16.1756 36.0927 18.2642 35.3966 20.1732C33.7098 18.921 31.621 18.1801 29.3598 18.1801C23.7614 18.1801 19.2198 22.7217 19.2198 28.3201C19.2198 28.4701 19.2232 28.6194 19.2299 28.768C19.2233 28.9179 19.22 29.0686 19.22 29.2201C19.22 31.0787 19.7276 32.8164 20.5996 34.3093C20.496 34.3419 20.2811 34.3801 20 34.3801C19.7022 34.3801 19.4788 34.3373 19.3832 34.3036L19.3686 34.2985C16.9739 33.481 12.9567 31.3014 9.55796 27.8191C6.17736 24.3554 3.5 19.7031 3.5 13.9021ZM23.315 36.4545C22.7133 36.7245 22.1359 36.9587 21.6013 37.1374C21.0882 37.316 20.5076 37.3801 20 37.3801C19.4905 37.3801 18.9076 37.3155 18.3931 37.1355C15.5676 36.1695 11.1466 33.7419 7.41104 29.9145C3.65464 26.0658 0.5 20.701 0.5 13.9021C0.5 7.51868 5.64657 2.34003 12.008 2.34003C15.1073 2.34003 17.9336 3.58474 20 5.59018C22.0664 3.58474 24.8927 2.34003 27.992 2.34003C34.3534 2.34003 39.5 7.51868 39.5 13.9021C39.5 17.0899 38.8089 19.9678 37.6818 22.5265C38.8276 24.169 39.4998 26.1663 39.4998 28.3201C39.4998 30.2146 38.9744 32.0155 38.0198 33.5481C36.2662 36.4749 33.0567 38.4601 29.3598 38.4601C27.0916 38.4601 24.9967 37.7123 23.315 36.4545ZM22.2342 28.7662C22.3097 29.9308 22.6776 31.0312 23.2597 31.9839L23.2717 32.0039C24.4866 34.0632 26.7573 35.4601 29.3598 35.4601C31.9573 35.4601 34.2159 34.067 35.4519 31.997L35.4627 31.9793L35.4678 31.971C36.1281 30.9145 36.4998 29.6602 36.4998 28.3201C36.4998 27.0389 36.1618 25.8362 35.5703 24.7963C35.1869 24.778 34.821 24.6128 34.5525 24.329C33.2373 22.9391 31.3933 22.0801 29.36 22.0801C25.5709 22.0801 22.4686 25.0359 22.2342 28.7662ZM33.8288 25.1793C34.3903 25.7884 34.3517 26.7374 33.7426 27.2989L29.1346 31.5469C28.5429 32.0923 27.6263 32.0737 27.0572 31.5047L24.9332 29.3807C24.3475 28.7949 24.3474 27.8452 24.9332 27.2594C25.519 26.6736 26.4688 26.6736 27.0546 27.2594L28.1601 28.3649L31.7092 25.0932C32.3183 24.5317 33.2673 24.5702 33.8288 25.1793Z" fill="white"/>
</svg>
