<svg width="40" height="40" viewBox="0 0 40 40" fill="none" xmlns="http://www.w3.org/2000/svg">
<path d="M32.6927 25.4295C33.8093 22.7319 34.0663 19.7463 33.4276 16.8925C32.789 14.0387 31.2867 11.4602 29.132 9.51946C26.9773 7.57875 24.2785 6.37344 21.4152 6.073C18.5518 5.77256 15.6679 6.3921 13.1688 7.84451L11.4616 4.8052C14.0734 3.2875 17.0309 2.49268 20.0391 2.50005C23.0473 2.50742 26.001 3.31672 28.6055 4.8472C36.3324 9.38254 39.2924 19.0936 35.6905 27.1915L38 28.5458L30.8324 32.4197L30.5484 24.1714L32.6927 25.4295ZM7.30905 14.5705C6.19242 17.2681 5.93538 20.2537 6.57407 23.1075C7.21276 25.9613 8.71507 28.5398 10.8698 30.4805C13.0245 32.4213 15.7232 33.6266 18.5865 33.927C21.4499 34.2274 24.3338 33.6079 26.8329 32.1555L28.5401 35.1948C25.9284 36.7125 22.9708 37.5073 19.9627 37.5C16.9545 37.4926 14.0007 36.6833 11.3962 35.1528C3.6693 30.6175 0.709307 20.9064 4.3112 12.8085L2 11.456L9.16765 7.58205L9.4516 15.8304L7.30733 14.5723L7.30905 14.5705ZM22.436 24.9483L17.564 20L12.6973 24.9483L10.2639 22.4741L17.5658 15.0517L22.4342 20L27.3027 15.0517L29.7361 17.5259L22.4342 24.9483H22.436Z" fill="white"/>
</svg>
