<svg width="40" height="40" viewBox="0 0 40 40" fill="none" xmlns="http://www.w3.org/2000/svg">
<path fill-rule="evenodd" clip-rule="evenodd" d="M1.15001 2.56193C1.15001 1.6993 1.8493 1 2.71193 1H4.4302H35.6687H37.4214C38.284 1 38.9833 1.6993 38.9833 2.56193C38.9833 3.42455 38.284 4.12385 37.4214 4.12385H37.2307V23.5612C37.2307 25.4709 36.7252 27.1867 35.4933 28.4186C34.2614 29.6505 32.5456 30.156 30.6359 30.156H21.6286V32.8351L27.7072 35.8743C28.4787 36.2601 28.7915 37.1983 28.4057 37.9699C28.0199 38.7414 27.0817 39.0542 26.3101 38.6684L20.0667 35.5467L13.8233 38.6684C13.0517 39.0542 12.1135 38.7415 11.7277 37.9699C11.342 37.1984 11.6547 36.2601 12.4263 35.8744L18.5047 32.8351V30.156H9.48044C7.57002 30.156 5.85564 29.6502 4.62227 28.42C3.38962 27.1905 2.87834 25.4776 2.8683 23.5694L2.86828 23.5612V4.12385H2.71193C1.8493 4.12385 1.15001 3.42455 1.15001 2.56193ZM5.99213 4.12385H34.1068V23.5612C34.1068 24.9488 33.7445 25.7495 33.2844 26.2097C32.8242 26.6698 32.0235 27.0321 30.6359 27.0321H9.48044C8.09346 27.0321 7.2914 26.6701 6.82833 26.2083C6.36499 25.7461 6.00011 24.9436 5.99213 23.5569V4.12385ZM28.8774 14.1738C29.5396 13.6209 29.6282 12.6359 29.0753 11.9738C28.5225 11.3116 27.5375 11.223 26.8753 11.7758L22.0328 15.819L20.3648 13.0389L20.3648 13.0389L20.3606 13.0319C20.0012 12.44 19.4141 11.9986 18.6974 11.8725C17.9768 11.7458 17.2656 11.963 16.7214 12.4191L16.7192 12.4209L11.2561 16.9823C10.5939 17.5351 10.5053 18.5201 11.0582 19.1823C11.611 19.8444 12.596 19.9331 13.2582 19.3802L18.1007 15.3371L19.7687 18.1171L19.7687 18.1171L19.7729 18.1241C20.1403 18.7291 20.7372 19.1606 21.45 19.2794C22.1567 19.3972 22.8503 19.1868 23.3854 18.7588C23.3939 18.752 23.4023 18.7451 23.4107 18.7381L28.8774 14.1738Z" fill="white"/>
</svg>
