<svg width="151" height="150" viewBox="0 0 151 150" fill="none" xmlns="http://www.w3.org/2000/svg">
<rect x="38.8189" y="35.2173" width="74.3478" height="74.3478" fill="white"/>
<path d="M75.6667 0C34.2667 0 0.666687 33.6 0.666687 75C0.666687 116.4 34.2667 150 75.6667 150C117.067 150 150.667 116.4 150.667 75C150.667 33.6 117.067 0 75.6667 0ZM95.6167 87.975L86.0167 93.525L76.4167 99.075C64.0417 106.2 53.9167 100.35 53.9167 86.1V63.9C53.9167 49.575 64.0417 43.8 76.4167 50.925L86.0167 56.475L95.6167 62.025C107.992 69.15 107.992 80.85 95.6167 87.975Z" fill="#3A78F2"/>
</svg>
