<svg width="96" height="64" viewBox="0 0 96 64" fill="none" xmlns="http://www.w3.org/2000/svg">
<path fill-rule="evenodd" clip-rule="evenodd" d="M60.1441 23.9183L60.1339 0L53.2953 3.35807C51.1405 4.41633 50.1123 6.08819 50.1123 8.47643L50.1807 32.4673L56.9249 29.1092C59.1059 28.0187 60.1441 26.3588 60.1441 23.9183ZM35.1433 28.8638L35.1191 40L41.9779 36.5716C44.0463 35.5375 45.0945 33.9379 45.0765 31.6202L44.9979 21.2605L37.1694 25.3428C35.8656 26.0229 35.1433 27.3851 35.1433 28.8638Z" fill="#3A78F2"/>
<path d="M0 51.8919V49.0811H12.3462V51.8919H7.74923V64H4.597V51.8919H0Z" fill="black"/>
<path d="M13.4028 60.4973V56.0865C13.4028 53.7514 14.5849 52.5838 16.949 52.5838H19.7948C22.159 52.5838 23.3411 53.7514 23.3411 56.0865V59.3946H16.4237V60.7135C16.4237 61.1748 16.6572 61.4054 17.1242 61.4054H22.9033V63.027L21.5898 64H16.949C14.5849 64 13.4028 62.8324 13.4028 60.4973ZM16.4237 57.1027H20.3202V55.8703C20.3202 55.409 20.0867 55.1784 19.6197 55.1784H17.1242C16.6572 55.1784 16.4237 55.409 16.4237 55.8703V57.1027Z" fill="black"/>
<path d="M26.1437 60.4973V56.0865C26.1437 53.7514 27.3258 52.5838 29.69 52.5838H33.7616L35.075 53.5568V55.1784H29.8651C29.3981 55.1784 29.1646 55.409 29.1646 55.8703V60.7135C29.1646 61.1748 29.3981 61.4054 29.8651 61.4054H35.075V63.027L33.7616 64H29.69C27.3258 64 26.1437 62.8324 26.1437 60.4973Z" fill="black"/>
<path d="M37.6489 64V48H40.6698V52.5838H44.0409C46.4051 52.5838 47.5872 53.7514 47.5872 56.0865V64H44.5663V55.8703C44.5663 55.409 44.3328 55.1784 43.8658 55.1784H40.6698V64H37.6489Z" fill="black"/>
<path d="M48.7191 51.8919V49.0811H61.0654V51.8919H56.4684V64H53.3161V51.8919H48.7191Z" fill="black"/>
<path d="M65.0166 64C62.6524 64 61.4703 62.8541 61.4703 60.5622C61.4703 58.2703 62.6524 57.1243 65.0166 57.1243H68.0375V55.8703C68.0375 55.409 67.804 55.1784 67.337 55.1784H62.6962V53.5568L64.0096 52.5838H67.5121C69.8763 52.5838 71.0584 53.7514 71.0584 56.0865V64H65.0166ZM64.4912 60.7135C64.4912 61.1748 64.7247 61.4054 65.1917 61.4054H68.0375V59.4162H65.1917C64.7247 59.4162 64.4912 59.6468 64.4912 60.1081V60.7135Z" fill="black"/>
<path d="M73.9436 60.4973V56.0865C73.9436 53.7514 75.1257 52.5838 77.4899 52.5838H81.5615L82.875 53.5568V55.1784H77.665C77.198 55.1784 76.9645 55.409 76.9645 55.8703V60.7135C76.9645 61.1748 77.198 61.4054 77.665 61.4054H82.875V63.027L81.5615 64H77.4899C75.1257 64 73.9436 62.8324 73.9436 60.4973Z" fill="black"/>
<path d="M85.4488 64V48H88.4697V56.8865L92.4756 52.5838H95.4527L95.6935 53.0811L91.6876 57.3405L96 63.5027L95.7592 64H92.804L89.6955 59.4811L88.4697 60.8V64H85.4488Z" fill="black"/>
</svg>
